<?xml version="1.0" standalone="no"?>
<!DOCTYPE svg PUBLIC "-//W3C//DTD SVG 20010904//EN"
 "http://www.w3.org/TR/2001/REC-SVG-20010904/DTD/svg10.dtd">
<svg version="1.0" xmlns="http://www.w3.org/2000/svg"
 width="500.000000pt" height="500.000000pt" viewBox="0 0 500.000000 500.000000"
 preserveAspectRatio="xMidYMid meet">
<metadata>
Created by potrace 1.14, written by Peter Selinger 2001-2017
</metadata>
<g transform="translate(0.000000,500.000000) scale(0.100000,-0.100000)"
fill="#000000" stroke="none">
<path d="M3480 4959 c-52 -3 -198 -4 -324 -3 -205 3 -234 1 -271 -15 -47 -21
-71 -61 -85 -144 -5 -29 -9 -369 -9 -756 -1 -388 -4 -707 -7 -710 -11 -11
-567 -2 -574 9 -12 20 -4 53 14 56 10 1 21 5 24 9 4 3 -5 4 -19 2 -25 -5 -26
-4 -25 49 1 33 5 54 12 54 6 0 18 8 25 17 12 15 12 16 -1 8 -28 -17 -36 -13
-32 16 3 18 9 26 16 22 6 -3 8 -3 4 2 -4 4 -3 14 4 22 9 11 8 13 -3 11 -9 -2
-15 7 -17 25 -2 17 1 27 10 27 9 0 9 3 -2 10 -13 8 -13 13 -2 31 8 11 9 19 4
15 -5 -3 -9 1 -9 9 0 8 4 12 9 9 4 -3 8 0 8 5 0 6 -4 11 -9 11 -7 0 -8 54 -1
70 1 3 2 8 1 13 0 4 5 7 11 7 7 0 5 5 -5 11 -14 8 -16 14 -6 25 6 8 8 14 3 14
-4 0 1 7 12 15 14 11 15 14 2 9 -15 -5 -16 5 -14 101 2 79 6 109 17 117 12 8
11 9 -2 5 -13 -4 -16 6 -15 74 0 43 3 79 6 79 3 0 12 -6 20 -12 12 -11 12 -10
2 3 -6 9 -8 20 -4 24 4 5 2 5 -4 2 -7 -4 -15 0 -18 9 -5 12 -2 15 10 10 14 -5
15 -4 4 9 -10 12 -10 18 1 32 10 11 10 14 2 9 -9 -4 -13 -1 -13 9 0 12 5 15
18 11 15 -5 14 -4 -2 9 -15 11 -17 17 -7 29 8 10 9 16 1 21 -5 3 -10 11 -10
16 0 6 6 7 13 3 9 -6 9 -4 1 7 -12 16 -17 62 -5 55 4 -3 8 1 8 9 0 8 -4 12 -8
10 -4 -3 -8 11 -9 30 -1 19 -3 48 -3 64 -1 16 -5 27 -8 25 -4 -2 -9 9 -12 25
-10 47 -68 113 -127 143 -73 37 -120 50 -220 63 -30 4 -66 9 -80 12 -14 3
-349 7 -744 9 -812 4 -755 10 -780 -75 -13 -44 -17 -70 -31 -191 -7 -67 -15
-449 -21 -1020 -3 -316 -7 -631 -9 -700 -2 -69 -6 -291 -10 -495 -3 -203 -8
-451 -11 -550 -10 -447 -12 -1404 -3 -1460 17 -105 40 -189 64 -230 23 -40 79
-97 88 -89 2 2 10 -3 18 -13 9 -11 10 -14 2 -9 -9 5 -11 2 -6 -10 4 -11 8 -13
11 -6 5 15 32 16 32 1 0 -6 7 -8 16 -5 12 4 14 1 9 -13 -3 -11 -2 -22 3 -25 6
-3 9 2 8 12 -1 18 6 19 38 6 15 -6 17 -4 11 7 -8 12 -6 12 8 0 9 -7 15 -17 12
-21 -3 -5 0 -12 7 -16 7 -4 10 -4 6 1 -9 9 9 35 23 35 5 0 9 -8 9 -17 0 -15
-2 -16 -10 -3 -8 13 -10 13 -10 -1 0 -19 26 -33 35 -19 4 6 11 10 17 10 6 0 5
-7 -3 -17 -11 -15 -10 -14 9 1 12 11 22 15 22 10 0 -5 10 2 21 16 18 22 19 22
10 3 -9 -18 -8 -24 7 -32 14 -8 18 -5 19 12 2 18 0 19 -8 7 -9 -13 -10 -13 -6
0 2 8 8 15 13 15 5 0 15 4 21 8 9 6 11 3 7 -7 -4 -11 0 -16 15 -16 12 0 21 -5
21 -11 0 -5 5 -7 10 -4 6 3 10 0 10 -7 0 -9 3 -9 10 2 5 8 10 11 10 6 0 -5 7
-3 15 4 10 8 19 9 28 3 16 -13 57 -14 57 -2 0 5 3 8 7 8 20 -3 34 2 28 11 -3
6 -1 10 5 10 6 0 8 5 4 13 -5 8 -2 8 9 -2 14 -11 17 -11 17 0 0 11 2 11 10 -1
5 -8 10 -19 10 -25 0 -5 -5 -3 -10 5 -9 13 -10 13 -10 0 0 -13 -1 -13 -10 0
-5 8 -10 11 -10 5 0 -5 5 -17 10 -25 6 -9 10 -10 10 -3 0 7 10 10 25 7 14 -2
25 0 25 6 0 6 -4 9 -8 6 -5 -3 -9 1 -9 9 0 8 2 13 5 10 3 -2 14 0 25 6 12 7
17 7 13 1 -3 -6 0 -12 6 -15 8 -2 9 -8 4 -13 -5 -5 -11 -4 -13 4 -3 6 -10 12
-16 12 -6 0 -4 -7 5 -16 18 -18 42 -10 34 12 -3 7 0 16 6 20 6 4 8 3 4 -4 -4
-7 1 -10 14 -9 11 1 20 6 20 12 0 5 5 2 11 -8 5 -9 8 -21 5 -25 -3 -4 5 -8 17
-9 12 -1 33 -4 46 -7 13 -3 21 -3 17 1 -3 3 0 13 7 22 10 14 10 14 -5 3 -13
-10 -17 -10 -21 0 -4 10 -6 10 -6 1 -1 -7 -5 -13 -11 -13 -17 0 -11 14 11 28
13 9 18 9 14 2 -9 -14 27 -9 37 5 5 6 8 5 8 -4 0 -11 3 -11 15 -1 9 7 18 10
22 6 3 -3 1 -6 -5 -6 -6 0 -9 -8 -6 -18 5 -14 4 -15 -5 -2 -9 13 -11 13 -11 0
0 -12 -2 -12 -9 -2 -6 11 -10 10 -15 -4 -3 -9 -4 -19 -1 -22 3 -3 5 -1 5 5 0
6 8 10 17 10 34 0 44 3 39 11 -2 4 -1 14 5 22 6 11 9 12 9 2 0 -8 5 -10 13 -5
16 10 55 15 42 6 -14 -11 -17 -33 -4 -33 5 0 8 -4 5 -8 -3 -5 1 -9 9 -9 8 0
12 4 9 8 -2 4 5 7 16 6 11 -1 20 -6 20 -12 0 -5 5 -3 10 5 9 13 10 13 10 0 0
-11 4 -9 13 5 6 11 12 24 12 29 0 5 7 11 15 13 9 3 11 1 5 -4 -19 -16 -11 -46
13 -48 13 -1 25 2 28 7 3 5 13 3 22 -4 15 -11 15 -11 5 2 -9 12 -8 19 3 34 9
13 14 15 14 6 0 -11 3 -11 12 -2 7 7 16 12 20 12 4 0 0 -8 -9 -18 -12 -12 -21
-14 -25 -8 -5 8 -8 8 -8 0 0 -5 7 -19 15 -30 10 -13 13 -14 10 -3 -4 9 0 16 7
16 7 0 18 2 23 3 21 5 36 -1 29 -12 -4 -7 -3 -8 5 -4 6 4 9 12 6 17 -4 5 1 9
9 9 10 0 13 6 10 15 -7 18 7 20 24 3 7 -7 12 -9 12 -5 0 4 9 3 20 -3 11 -6 20
-15 20 -21 0 -6 -4 -7 -10 -4 -5 3 -10 2 -10 -3 0 -6 11 -9 24 -8 13 0 21 5
18 11 -4 6 -8 19 -9 30 -2 14 2 12 15 -10 9 -17 24 -31 32 -33 12 -2 12 0 -2
11 -24 19 -26 39 -5 42 9 2 15 -1 11 -6 -3 -5 -10 -6 -16 -3 -7 4 -8 2 -4 -4
10 -16 49 5 40 21 -5 9 -4 9 6 0 9 -8 19 -9 31 -2 14 7 17 6 13 -4 -3 -8 2
-14 11 -14 9 0 14 5 12 12 -3 6 3 11 13 11 10 0 16 -4 14 -8 -3 -4 0 -8 5 -8
6 0 11 5 11 11 0 5 5 7 10 4 19 -11 10 -23 -15 -21 -13 2 -22 0 -19 -5 2 -4
-5 -6 -16 -4 -11 2 -20 0 -20 -4 0 -12 49 -10 57 2 3 5 14 -1 25 -14 10 -14
17 -17 16 -9 -2 8 3 14 10 12 8 -1 11 2 7 7 -3 6 -11 9 -18 7 -7 -1 -9 -1 -4
1 4 3 5 9 2 14 -4 5 2 6 11 2 11 -4 15 -3 10 5 -3 6 -2 13 3 16 4 3 8 -4 7
-17 -1 -16 4 -21 18 -19 12 2 16 -1 10 -9 -4 -8 -3 -10 5 -5 6 4 8 12 5 18 -4
6 -1 8 7 6 8 -3 13 -12 11 -19 -2 -8 0 -11 4 -7 4 4 14 2 23 -4 10 -8 9 -4 -3
10 -20 23 -10 31 13 9 10 -8 12 -8 7 0 -3 6 -2 14 4 18 5 3 10 2 10 -4 0 -5 9
-9 19 -8 11 0 17 5 15 9 -3 4 9 6 25 4 17 -2 28 1 25 5 -3 5 0 9 5 9 6 0 11 5
11 11 0 8 -4 9 -13 0 -8 -6 -17 -8 -20 -4 -4 3 -7 2 -7 -3 0 -5 -13 -9 -30 -9
-16 -1 -30 4 -30 10 0 5 -4 4 -9 -4 -6 -10 -10 -10 -16 -1 -5 8 -11 6 -22 -7
-8 -10 -11 -12 -8 -5 6 11 3 12 -13 3 -28 -15 -32 -14 -31 7 0 10 3 12 6 5 4
-10 10 -10 31 0 24 12 48 14 77 7 28 -7 44 1 39 18 -4 10 -2 13 3 7 4 -6 14
-10 21 -9 6 1 17 2 23 3 5 0 8 5 4 10 -3 5 4 12 15 16 11 4 17 11 14 17 -5 7
-2 8 5 3 9 -5 7 -12 -7 -26 -20 -18 -20 -59 0 -59 5 0 4 9 -2 20 -13 25 -2 26
17 3 13 -16 13 -16 3 5 -10 19 -8 27 7 45 10 11 12 17 5 13 -10 -6 -11 -1 -6
21 4 15 11 29 16 31 4 2 8 8 8 13 0 6 -4 8 -8 5 -4 -2 -8 6 -8 20 0 13 4 24 8
24 4 0 8 5 8 11 0 5 -4 8 -8 5 -5 -3 -9 1 -9 9 0 8 5 11 11 8 6 -4 5 1 -3 10
-11 14 -11 17 0 17 11 0 11 2 -1 10 -10 6 -11 10 -2 10 6 0 12 5 12 11 0 5 -4
8 -8 5 -4 -2 -8 6 -8 20 0 18 4 23 16 19 9 -3 8 0 -4 10 -11 8 -14 15 -8 15 7
0 12 5 12 11 0 5 -4 8 -8 5 -10 -6 -9 95 1 111 4 6 1 14 -5 16 -7 3 -4 6 6 6
19 1 19 1 1 14 -14 11 -15 16 -5 22 10 6 9 9 -1 16 -11 7 -10 9 4 9 17 0 17 1
2 16 -13 14 -14 19 -3 25 8 6 9 12 3 17 -13 9 -13 35 -1 44 6 4 4 13 -3 22
-11 13 -11 17 3 22 14 5 14 7 0 21 -9 9 -11 19 -6 22 13 8 11 41 -2 41 -6 1 0
8 14 16 14 8 17 13 8 10 -10 -3 -18 -1 -18 4 0 6 6 10 13 10 6 0 4 5 -6 11
-18 10 -18 11 0 32 10 11 13 18 7 14 -17 -10 -11 92 7 105 11 8 11 9 -3 4 -10
-3 -18 -3 -18 1 0 3 8 12 18 20 16 14 16 14 0 9 -10 -3 -18 -3 -18 1 0 3 8 12
18 19 16 13 16 14 0 8 -14 -5 -18 -1 -18 17 0 20 2 21 11 9 9 -12 9 -11 4 5
-12 34 -14 106 -2 98 6 -4 7 -1 2 7 -15 25 -11 104 5 112 13 5 12 7 -2 7 -14
1 -15 6 -8 31 5 17 5 30 1 30 -3 0 -7 41 -6 90 0 74 3 89 14 85 11 -4 10 -1
-2 13 -17 19 -17 19 8 17 14 -2 27 0 30 5 3 5 -3 7 -12 5 -21 -3 -45 14 -37
26 3 5 9 7 14 4 4 -3 14 3 21 12 12 14 11 15 -9 9 -12 -4 -22 -4 -22 1 0 12
38 14 45 2 4 -5 15 -3 28 4 26 16 53 16 50 0 -1 -5 9 -15 23 -22 19 -8 23 -8
18 0 -4 7 -1 10 7 7 8 -3 13 -14 11 -24 -2 -15 -1 -16 7 -4 5 8 7 18 5 22 -3
4 5 7 17 5 13 -2 26 -12 30 -23 5 -14 7 -10 6 14 0 22 -3 29 -8 20 -6 -9 -9
-10 -9 -1 0 7 8 17 19 22 15 9 18 7 16 -13 -2 -17 2 -23 13 -21 10 1 24 -3 32
-9 13 -10 13 -9 0 8 -14 18 -13 18 8 12 12 -4 22 -4 22 1 0 4 9 14 21 21 12 8
18 9 14 3 -3 -6 -2 -11 4 -11 5 0 13 5 16 10 3 6 12 10 18 10 9 0 9 -2 0 -8
-9 -5 -9 -12 0 -27 13 -22 24 -25 45 -11 7 4 19 2 28 -5 13 -11 15 -103 12
-755 l-3 -742 23 -24 c12 -14 22 -29 22 -35 0 -6 7 -17 16 -24 9 -7 20 -24 25
-36 5 -15 20 -26 39 -29 18 -4 27 -11 23 -18 -3 -6 0 -6 8 2 16 15 29 16 29 1
0 -5 -4 -8 -8 -5 -5 3 -9 -1 -9 -9 0 -8 4 -15 9 -15 4 0 8 4 8 8 0 4 9 8 21 9
18 2 19 0 8 -15 -11 -14 -11 -15 1 -5 16 15 34 17 26 5 -3 -5 1 -9 8 -9 7 0
13 6 13 13 0 7 -4 11 -8 8 -4 -2 -10 0 -13 5 -4 5 -2 12 3 15 5 4 12 2 16 -4
3 -5 11 -10 16 -10 6 0 7 5 3 12 -4 7 -3 8 5 4 9 -6 9 -11 1 -21 -8 -10 -8
-15 1 -21 7 -4 9 -3 6 3 -4 6 0 14 9 17 11 4 15 2 11 -7 -6 -17 28 -16 45 1
16 16 33 15 19 -1 -8 -10 -7 -14 4 -14 8 0 12 4 9 9 -8 12 10 10 24 -4 9 -9
11 -7 7 10 -2 12 1 25 7 28 7 4 8 2 4 -4 -10 -16 6 -15 24 1 8 6 6 2 -3 -10
-14 -16 -15 -23 -6 -29 7 -4 10 -3 6 3 -4 6 0 14 9 17 11 4 15 2 11 -7 -3 -8
2 -13 12 -12 24 2 62 30 53 40 -4 5 -1 5 6 1 11 -7 10 -11 -2 -25 -14 -15 -14
-18 -1 -18 8 0 12 4 9 9 -7 12 10 10 22 -2 7 -7 11 -6 11 4 0 8 -3 13 -7 11
-4 -2 -7 3 -7 11 0 10 4 11 11 4 14 -14 29 -13 20 2 -4 7 -3 8 5 4 9 -6 9 -11
1 -21 -8 -10 -8 -15 1 -21 7 -4 9 -3 6 3 -4 6 0 14 9 17 11 4 15 2 11 -7 -6
-17 28 -16 45 1 16 16 33 15 19 -1 -8 -10 -7 -14 4 -14 8 0 12 4 9 9 -8 12 10
10 24 -4 9 -9 11 -7 7 10 -2 12 1 25 7 28 7 4 8 2 4 -4 -10 -16 6 -15 24 0 8
7 6 3 -3 -9 -14 -16 -15 -23 -6 -29 7 -4 10 -3 6 3 -4 6 0 14 9 17 11 4 15 2
11 -7 -3 -8 2 -13 12 -12 24 2 62 30 53 40 -4 5 -1 5 6 1 11 -7 10 -11 -2 -25
-14 -15 -14 -18 -1 -18 8 0 12 4 9 9 -7 12 10 10 22 -2 7 -7 11 -6 11 4 0 8
-3 13 -7 11 -4 -2 -7 3 -7 11 0 10 4 11 11 4 14 -14 29 -13 20 2 -4 7 -3 8 5
4 9 -6 9 -11 1 -21 -8 -10 -8 -15 1 -21 7 -4 9 -3 6 3 -4 6 0 14 9 17 11 4 15
2 11 -7 -6 -17 28 -16 45 1 16 16 33 15 19 -1 -8 -10 -7 -14 4 -14 8 0 12 4 9
9 -8 12 10 10 24 -4 9 -9 11 -7 7 10 -2 12 1 25 7 28 7 4 8 2 4 -4 -10 -16 6
-15 24 1 8 6 6 2 -3 -10 -14 -16 -15 -23 -6 -29 7 -4 10 -3 6 3 -4 6 0 14 9
17 11 4 15 2 11 -7 -3 -8 2 -13 12 -12 24 2 62 30 53 40 -4 5 -1 5 6 1 11 -7
10 -11 -2 -25 -14 -15 -14 -18 -1 -18 8 0 12 4 9 9 -7 12 10 10 22 -2 7 -7 11
-6 11 4 0 8 -3 13 -7 11 -4 -2 -7 3 -7 11 0 10 4 11 11 4 14 -14 29 -13 20 2
-4 7 -3 8 5 4 9 -6 9 -11 1 -21 -8 -10 -8 -15 1 -21 7 -4 9 -3 6 3 -4 6 0 14
9 17 11 4 15 2 11 -7 -6 -17 28 -16 45 1 16 16 33 15 19 -1 -8 -10 -7 -14 4
-14 8 0 12 4 9 9 -8 12 10 10 24 -4 9 -9 11 -7 7 10 -2 12 1 25 7 28 6 4 8 3
5 -3 -4 -5 6 -10 23 -10 16 0 27 3 25 7 -2 4 2 7 9 7 15 0 15 -21 1 -34 -4 -5
-4 -1 0 7 8 13 7 13 -8 1 -22 -17 -22 -17 7 -17 14 0 23 3 21 6 -2 4 9 7 25 7
16 0 27 -4 25 -8 -3 -4 2 -6 10 -5 9 1 14 6 13 12 -2 5 -6 8 -10 7 -3 -1 -12
5 -20 15 -12 15 -11 16 5 3 12 -10 17 -10 17 -2 0 8 6 7 16 -3 17 -17 39 -22
29 -7 -3 5 -1 12 4 15 5 4 8 -5 7 -18 -2 -16 1 -23 9 -19 7 2 11 14 8 26 -4
18 -3 19 6 7 10 -13 11 -13 11 0 0 13 1 13 10 0 5 -8 10 -10 10 -4 0 5 11 10
24 10 14 0 23 -3 20 -7 -2 -4 0 -10 5 -13 5 -4 12 4 14 16 4 19 5 18 6 -6 1
-19 5 -27 15 -23 7 3 20 0 27 -6 11 -10 11 -9 1 4 -11 15 -9 17 18 15 16 0 30
-4 30 -8 0 -4 9 -6 19 -5 11 0 17 5 15 9 -5 8 9 12 32 9 6 -1 11 6 11 14 0 17
-13 20 -22 5 -3 -5 -12 -7 -21 -3 -8 3 -14 2 -12 -3 2 -5 0 -10 -5 -11 -16 -6
-19 -2 -7 12 8 10 9 15 2 15 -6 0 -16 -8 -21 -17 -10 -17 -10 -17 -11 0 0 9 3
18 8 18 33 6 52 5 52 -3 0 -4 12 0 27 9 15 10 24 12 20 6 -5 -7 -4 -13 2 -13
6 0 11 6 11 13 0 8 2 9 8 1 9 -14 56 1 47 16 -3 6 1 7 9 4 9 -3 16 -1 16 6 0
6 4 9 9 6 4 -3 25 10 45 30 20 19 36 31 36 26 0 -4 -5 -13 -12 -20 -8 -8 -8
-12 -1 -12 16 0 25 31 13 45 -7 9 -4 21 12 41 12 16 15 23 8 16 -22 -19 -32
-14 -19 10 9 17 9 23 0 26 -9 3 -9 7 0 18 9 11 9 14 0 14 -9 0 -9 5 -1 20 8
14 8 20 0 20 -6 0 -8 5 -5 10 4 6 11 8 16 5 5 -4 9 -1 9 4 0 6 -7 11 -15 11
-9 0 -12 6 -8 16 3 8 12 13 20 10 8 -3 11 -1 8 4 -3 6 -14 10 -23 10 -15 0
-15 2 -2 10 13 9 13 10 0 10 -13 0 -13 1 0 10 13 9 13 10 0 10 -13 0 -13 1 0
10 8 5 11 10 5 10 -5 0 -10 18 -11 40 0 22 4 37 9 33 5 -3 4 3 -2 14 -7 14 -7
24 2 33 7 7 7 10 1 7 -7 -4 -11 6 -12 25 -1 24 2 28 9 18 7 -12 8 -11 6 5 -2
11 -8 29 -12 39 -6 13 -4 21 3 24 7 2 12 8 12 13 0 6 -4 7 -10 4 -5 -3 -10 -2
-10 4 0 5 6 12 13 14 9 4 8 6 -2 6 -11 1 -11 4 0 18 10 11 10 14 2 9 -7 -4
-13 -3 -13 1 0 5 6 15 13 22 6 8 7 11 1 8 -8 -4 -11 17 -12 68 -1 42 -4 80 -7
85 -3 6 -2 10 4 10 6 0 6 11 1 31 -7 24 -6 30 4 26 11 -4 10 1 -2 26 -10 20
-12 32 -5 34 8 3 8 14 3 34 -7 23 -6 30 3 26 7 -3 13 5 13 19 1 13 -2 24 -8
24 -5 0 -7 -4 -3 -9 3 -5 1 -12 -3 -15 -12 -7 -9 41 2 51 5 5 6 2 1 -6 -5 -9
-4 -12 3 -8 11 7 11 32 -1 43 -12 13 -8 36 6 28 10 -6 10 -4 0 7 -7 7 -13 24
-13 37 0 16 4 21 13 16 9 -6 9 -4 1 7 -14 20 -19 83 -5 75 6 -4 11 -2 11 3 0
6 -6 11 -14 11 -16 0 -11 35 8 59 8 11 8 13 -1 7 -15 -8 -14 -10 -16 65 0 30
2 63 6 73 4 10 3 15 -3 11 -6 -3 -10 -1 -10 4 0 6 5 11 11 11 5 0 7 5 3 12 -4
6 -8 26 -9 45 -1 26 2 32 13 28 11 -4 12 -2 5 7 -14 18 -23 58 -12 58 5 0 6
14 2 32 -5 25 -3 30 8 23 11 -6 12 -5 2 6 -7 7 -13 20 -13 28 1 13 4 12 15 -3
8 -11 15 -15 15 -10 0 6 -6 16 -12 22 -17 17 -20 162 -4 181 8 12 8 13 -1 7
-8 -4 -13 -1 -13 9 0 9 4 14 8 11 4 -2 9 5 9 17 2 17 0 19 -7 7 -7 -11 -10 -8
-10 13 0 20 4 26 13 21 9 -6 9 -4 1 7 -5 8 -11 29 -13 48 -2 25 0 31 11 26 10
-6 11 -5 1 6 -17 17 -17 43 0 33 9 -6 9 -4 1 7 -6 8 -10 25 -10 39 1 14 -3 28
-9 32 -6 5 -6 8 2 8 7 0 10 10 7 26 -3 14 1 33 8 42 8 10 9 13 1 9 -6 -4 -14
-3 -18 3 -3 5 -2 10 3 10 6 0 7 14 2 36 -7 29 -5 34 6 30 8 -3 14 -1 14 4 0 6
-6 10 -12 10 -9 0 -13 23 -13 80 0 58 3 79 12 76 7 -3 10 1 6 9 -3 8 -9 12
-14 9 -13 -8 -11 10 4 25 10 11 10 13 0 7 -19 -11 -16 5 5 21 16 14 16 14 0 9
-10 -3 -18 -3 -18 1 0 3 8 12 18 19 16 13 16 14 0 8 -10 -3 -18 -1 -18 5 0 6
6 11 13 11 8 0 8 3 2 8 -14 10 -15 112 -1 112 6 0 5 4 -3 9 -8 5 -11 16 -8 25
3 8 2 18 -4 22 -6 3 -6 10 -1 17 9 12 8 85 -2 94 -2 3 -1 16 4 28 6 16 5 25
-3 29 -9 3 -9 5 1 5 10 1 10 6 1 22 -8 15 -8 19 0 15 6 -4 11 -3 11 3 0 5 -5
13 -10 16 -8 5 -7 11 1 21 9 11 9 14 -1 14 -10 0 -10 3 -1 14 9 11 9 15 -1 19
-10 4 -10 6 0 6 6 1 12 6 12 12 0 5 -4 8 -8 5 -4 -2 -8 6 -8 20 0 13 4 24 8
24 4 0 8 5 8 11 0 5 -6 7 -12 3 -9 -5 -9 -2 1 9 10 13 10 17 1 17 -9 0 -10 3
-1 13 6 8 8 17 4 21 -14 13 -11 57 3 52 7 -3 16 0 20 6 5 7 2 8 -6 3 -10 -6
-12 -4 -6 10 5 15 4 16 -9 5 -13 -11 -16 -11 -13 1 2 8 8 17 13 21 6 5 6 8 -2
8 -13 0 -12 18 1 39 6 10 5 12 -2 7 -7 -4 -12 -2 -12 3 0 6 6 11 13 11 8 0 7
4 -3 10 -13 9 -13 10 0 10 11 0 12 2 2 8 -13 9 -12 38 2 61 6 10 5 12 -2 7 -7
-4 -12 -1 -12 9 0 10 5 13 13 9 8 -5 8 -2 -2 9 -11 14 -11 20 0 34 10 11 10
14 2 9 -7 -4 -13 -3 -13 3 0 5 6 12 13 14 9 4 9 6 0 6 -7 1 -13 6 -13 12 0 5
6 7 13 3 8 -5 8 -2 -2 9 -11 14 -11 20 0 34 10 11 10 14 2 9 -7 -4 -13 -3 -13
3 0 5 8 12 18 14 16 4 16 5 0 6 -20 1 -25 21 -5 21 9 0 9 2 -1 9 -8 4 -14 12
-14 16 0 4 6 12 14 16 10 7 10 9 -2 10 -10 0 -8 3 5 9 l20 9 -20 0 c-17 1 -17
3 -5 11 8 5 10 10 5 10 -6 0 -11 15 -11 34 0 21 4 32 11 28 5 -3 4 2 -4 11 -9
11 -10 17 -2 17 6 0 11 5 11 11 0 5 -4 8 -8 5 -12 -7 -9 78 3 87 7 6 6 10 -2
13 -7 3 -9 12 -6 20 5 13 7 13 14 2 7 -10 9 -10 9 0 0 7 -6 15 -14 18 -16 6
-13 48 5 70 6 8 9 17 5 21 -3 3 -6 1 -6 -5 0 -7 -5 -12 -11 -12 -5 0 -7 4 -4
10 12 20 14 53 4 71 -8 15 -6 19 6 19 10 0 13 -5 9 -12 -5 -7 -3 -8 6 -3 10 6
9 11 -4 21 -10 7 -15 17 -11 23 3 6 1 11 -5 11 -7 0 -8 6 -1 19 6 10 7 21 4
25 -10 10 -11 46 -1 46 5 0 6 6 2 12 -10 16 -13 119 -4 113 4 -2 7 2 7 10 0 8
-4 12 -9 9 -4 -3 -8 12 -8 34 0 137 -141 199 -530 231 -109 9 -638 9 -780 0z
m-1013 -3228 c-1 -14 -5 -17 -13 -10 -8 7 -14 6 -17 -1 -3 -6 -4 -5 -2 2 1 7
8 12 14 11 6 -2 11 2 11 7 0 6 2 10 4 10 3 0 4 -9 3 -19z m115 12 c-6 -3 -9
-10 -6 -15 4 -7 2 -8 -5 -4 -6 4 -18 3 -26 -4 -10 -8 -15 -8 -21 1 -4 8 -3 9
5 5 6 -4 13 -1 16 6 3 8 16 14 28 15 12 0 16 -1 9 -4z m122 -4 c-4 -7 2 -9 16
-7 13 2 25 -3 28 -11 3 -10 0 -12 -13 -7 -10 3 -24 1 -31 -5 -11 -9 -14 -9
-14 0 0 7 -4 9 -10 6 -17 -11 -11 7 8 21 21 16 25 17 16 3z m-292 -14 c0 -5
-5 -10 -11 -11 -8 -2 -7 -1 0 3 8 4 7 8 -2 15 -11 8 -11 9 -1 6 8 -2 14 -8 14
-13z m-718 -1671 c7 -19 2 -18 -19 6 -16 17 -16 20 -3 15 9 -4 19 -13 22 -21z
m-824 -16 c0 -5 -3 -7 -7 -7 -5 1 -10 0 -13 -1 -22 -9 -53 -4 -67 12 -9 11
-11 18 -5 18 7 0 12 -4 12 -9 0 -5 8 -8 18 -6 9 2 21 4 25 4 5 1 5 6 2 12 -4
6 2 5 14 -3 12 -7 21 -16 21 -20z m233 26 c-7 -3 -9 -13 -6 -22 4 -14 3 -14
-5 -2 -12 16 -7 30 11 29 9 0 9 -2 0 -5z m262 -16 c4 0 12 6 16 14 7 10 9 10
9 1 0 -7 0 -16 0 -20 0 -10 -50 -12 -56 -1 -3 4 -2 13 2 19 5 8 9 8 14 -1 4
-6 11 -12 15 -12z m101 13 c8 7 17 9 21 5 3 -3 1 -6 -6 -6 -7 0 -10 -4 -7 -9
3 -5 -1 -14 -9 -21 -12 -10 -15 -9 -15 6 0 17 -1 17 -15 -2 -14 -17 -14 -17
-3 10 7 15 14 23 16 17 3 -9 8 -9 18 0z m111 -6 c0 -8 -2 -13 -5 -10 -3 2 -14
0 -26 -6 -17 -8 -16 -6 4 10 14 11 25 21 26 21 0 0 1 -7 1 -15z m-818 -9 c12
-15 5 -24 -16 -20 -7 1 -18 2 -24 3 -8 1 -8 6 1 16 16 19 24 19 39 1z m3755
-2 c5 -14 4 -15 -9 -4 -17 14 -19 20 -6 20 5 0 12 -7 15 -16z m-3973 -17 c-10
-9 -11 -8 -5 6 3 10 9 15 12 12 3 -3 0 -11 -7 -18z m39 13 c0 -5 -2 -10 -4
-10 -3 0 -8 5 -11 10 -3 6 -1 10 4 10 6 0 11 -4 11 -10z m2513 -4 c-7 -27 -11
-29 -21 -9 -10 18 -9 21 6 19 9 -2 16 -6 15 -10z m61 -2 c3 -8 2 -12 -4 -9 -6
3 -10 10 -10 16 0 14 7 11 14 -7z m105 9 c14 11 15 10 1 -8 -8 -11 -15 -22
-16 -23 -1 -2 -8 7 -14 20 -10 19 -10 21 1 11 10 -10 16 -10 28 0z m154 -7
c-7 -27 -11 -29 -21 -9 -10 18 -9 21 6 19 9 -2 16 -6 15 -10z m61 -2 c3 -8 2
-12 -4 -9 -6 3 -10 10 -10 16 0 14 7 11 14 -7z m105 9 c14 11 15 10 1 -8 -8
-11 -15 -22 -16 -23 -1 -2 -8 7 -14 20 -10 19 -10 21 1 11 10 -10 16 -10 28 0z
m154 -7 c-7 -27 -11 -29 -21 -9 -10 18 -9 21 6 19 9 -2 16 -6 15 -10z m61 -2
c3 -8 2 -12 -4 -9 -6 3 -10 10 -10 16 0 14 7 11 14 -7z m105 9 c14 11 15 10 1
-8 -8 -11 -15 -22 -16 -23 -1 -2 -8 7 -14 20 -10 19 -10 21 1 11 10 -10 16
-10 28 0z m154 -7 c-7 -27 -11 -29 -21 -9 -10 18 -9 21 6 19 9 -2 16 -6 15
-10z m61 -2 c3 -8 2 -12 -4 -9 -6 3 -10 10 -10 16 0 14 7 11 14 -7z m131 -13
c-6 -5 -25 10 -25 20 0 5 6 4 14 -3 8 -7 12 -15 11 -17z m245 15 c0 -3 -4 -8
-10 -11 -5 -3 -10 -1 -10 4 0 6 5 11 10 11 6 0 10 -2 10 -4z"/>
<path d="M730 42 c0 -5 7 -9 15 -9 8 0 12 4 9 9 -3 4 -9 8 -15 8 -5 0 -9 -4
-9 -8z"/>
<path d="M4807 4619 c7 -7 15 -10 18 -7 3 3 -2 9 -12 12 -14 6 -15 5 -6 -5z"/>
<path d="M2246 4502 c-3 -5 1 -9 9 -9 8 0 12 4 9 9 -3 4 -7 8 -9 8 -2 0 -6 -4
-9 -8z"/>
<path d="M4815 4480 c-3 -5 -1 -10 4 -10 6 0 11 5 11 10 0 6 -2 10 -4 10 -3 0
-8 -4 -11 -10z"/>
<path d="M4812 4280 c0 -14 2 -19 5 -12 2 6 2 18 0 25 -3 6 -5 1 -5 -13z"/>
<path d="M2230 4190 c0 -5 5 -10 11 -10 5 0 7 5 4 10 -3 6 -8 10 -11 10 -2 0
-4 -4 -4 -10z"/>
<path d="M4806 4163 c-6 -14 -5 -15 5 -6 7 7 10 15 7 18 -3 3 -9 -2 -12 -12z"/>
<path d="M2230 3950 c0 -5 5 -10 11 -10 5 0 7 5 4 10 -3 6 -8 10 -11 10 -2 0
-4 -4 -4 -10z"/>
<path d="M2220 3686 c0 -2 7 -7 16 -10 8 -3 12 -2 9 4 -6 10 -25 14 -25 6z"/>
<path d="M4807 3659 c7 -7 15 -10 18 -7 3 3 -2 9 -12 12 -14 6 -15 5 -6 -5z"/>
<path d="M2230 3630 c-9 -6 -10 -10 -3 -10 6 0 15 5 18 10 8 12 4 12 -15 0z"/>
<path d="M2215 3440 c-3 -5 -1 -10 4 -10 6 0 11 5 11 10 0 6 -2 10 -4 10 -3 0
-8 -4 -11 -10z"/>
<path d="M4815 3151 c-3 -5 -2 -12 3 -15 5 -3 9 1 9 9 0 17 -3 19 -12 6z"/>
<path d="M4806 3117 c3 -10 9 -15 12 -12 3 3 0 11 -7 18 -10 9 -11 8 -5 -6z"/>
<path d="M4810 3020 c-9 -6 -10 -10 -3 -10 6 0 15 5 18 10 8 12 4 12 -15 0z"/>
<path d="M4815 2980 c-3 -5 -1 -10 4 -10 6 0 11 5 11 10 0 6 -2 10 -4 10 -3 0
-8 -4 -11 -10z"/>
<path d="M4815 2860 c-3 -5 -1 -10 4 -10 6 0 11 5 11 10 0 6 -2 10 -4 10 -3 0
-8 -4 -11 -10z"/>
<path d="M4816 2613 c-6 -14 -5 -15 5 -6 7 7 10 15 7 18 -3 3 -9 -2 -12 -12z"/>
<path d="M4826 1838 c3 -5 10 -6 15 -3 13 9 11 12 -6 12 -8 0 -12 -4 -9 -9z"/>
<path d="M4836 1795 c-11 -8 -15 -15 -9 -15 6 0 16 7 23 15 16 19 11 19 -14 0z"/>
<path d="M2320 1713 c-11 -8 -20 -11 -20 -8 0 4 -7 -1 -16 -9 -8 -9 -20 -13
-26 -10 -7 4 -8 2 -4 -4 5 -8 13 -9 25 -2 12 6 22 5 30 -3 10 -9 11 -8 6 5 -6
16 -3 16 34 9 2 -1 -3 -9 -10 -18 -11 -13 -8 -13 12 2 15 12 22 23 17 26 -6 4
-8 11 -5 16 9 15 -21 12 -43 -4z m34 -9 c3 -8 2 -12 -4 -9 -6 3 -10 10 -10 16
0 14 7 11 14 -7z"/>
<path d="M2606 1721 c-4 -6 -4 -11 1 -12 4 0 -1 -4 -12 -9 -13 -6 -15 -9 -5
-9 26 -1 46 17 34 29 -9 9 -14 9 -18 1z"/>
<path d="M4816 1722 c-2 -4 -1 -14 4 -22 7 -11 9 -9 7 8 -1 24 -3 26 -11 14z"/>
<path d="M2651 1684 c0 -11 3 -14 6 -6 3 7 2 16 -1 19 -3 4 -6 -2 -5 -13z"/>
<path d="M2393 1675 c0 -8 4 -12 9 -9 5 3 6 10 3 15 -9 13 -12 11 -12 -6z"/>
<path d="M2706 1682 c-3 -5 1 -9 9 -9 8 0 15 4 15 9 0 4 -4 8 -9 8 -6 0 -12
-4 -15 -8z"/>
<path d="M2256 1218 c3 -5 10 -6 15 -3 13 9 11 12 -6 12 -8 0 -12 -4 -9 -9z"/>
<path d="M2255 940 c-3 -5 -1 -10 4 -10 6 0 11 5 11 10 0 6 -2 10 -4 10 -3 0
-8 -4 -11 -10z"/>
<path d="M4830 838 c0 -4 4 -8 9 -8 6 0 12 4 15 8 3 5 -1 9 -9 9 -8 0 -15 -4
-15 -9z"/>
<path d="M2255 820 c-3 -5 -1 -10 4 -10 6 0 11 5 11 10 0 6 -2 10 -4 10 -3 0
-8 -4 -11 -10z"/>
<path d="M2240 526 c0 -2 7 -7 16 -10 8 -3 12 -2 9 4 -6 10 -25 14 -25 6z"/>
<path d="M2246 477 c3 -10 9 -15 12 -12 3 3 0 11 -7 18 -10 9 -11 8 -5 -6z"/>
<path d="M4836 322 c-3 -5 1 -9 9 -9 8 0 12 4 9 9 -3 4 -7 8 -9 8 -2 0 -6 -4
-9 -8z"/>
<path d="M2256 155 c-9 -26 -7 -32 5 -12 6 10 9 21 6 23 -2 3 -7 -2 -11 -11z"/>
<path d="M4739 92 c-30 -21 -62 -38 -71 -39 -36 -1 -41 -3 -35 -10 4 -3 2 -12
-5 -20 -8 -11 -7 -12 6 -7 9 3 16 13 16 21 0 8 5 11 11 8 6 -4 8 -14 5 -24 -3
-9 2 -6 11 7 15 22 17 22 36 5 11 -10 17 -13 14 -6 -4 6 -4 13 0 16 5 2 3 2
-4 1 -7 -2 -15 1 -18 6 -6 9 8 14 28 11 4 -1 10 6 13 14 3 8 11 12 16 9 6 -4
5 -10 -3 -15 -7 -4 -10 -11 -5 -16 4 -4 12 0 17 10 6 9 15 15 20 12 5 -4 6
-11 3 -17 -5 -7 -2 -8 5 -4 9 6 9 12 -3 25 -18 19 -21 36 -7 26 5 -3 12 -1 15
4 16 25 -16 16 -65 -17z"/>
<path d="M4815 99 c-3 -4 2 -6 10 -5 21 3 28 13 10 13 -9 0 -18 -4 -20 -8z"/>
<path d="M1265 50 c-4 -6 -12 -7 -18 -4 -9 5 -9 4 0 -6 7 -8 16 -9 28 -2 11 6
14 12 7 16 -6 3 -13 2 -17 -4z"/>
<path d="M1626 43 c8 -29 30 -36 31 -9 0 11 -1 15 -4 8 -4 -10 -8 -8 -19 5
-12 17 -13 16 -8 -4z"/>
<path d="M1771 46 c-5 -6 -6 -18 -2 -25 7 -10 9 -9 14 3 4 10 13 13 23 9 11
-4 15 -2 12 7 -5 17 -35 21 -47 6z"/>
<path d="M435 40 c-2 -3 5 -6 15 -7 11 -1 22 2 24 5 3 4 -4 8 -15 8 -11 0 -22
-3 -24 -6z"/>
<path d="M1035 40 c-3 -4 5 -16 18 -26 13 -12 17 -13 10 -3 -9 10 -9 19 -2 26
6 6 5 10 -6 10 -9 0 -18 -3 -20 -7z"/>
<path d="M4400 31 c-8 -6 -18 -7 -22 -5 -4 3 -8 1 -8 -5 0 -5 5 -13 10 -16 6
-3 10 -1 10 4 0 6 5 11 11 11 5 0 8 -3 6 -7 -3 -5 5 -9 18 -9 21 -2 22 -1 7
17 -9 11 -17 19 -17 19 0 0 -7 -4 -15 -9z"/>
<path d="M660 22 c0 -6 9 -12 20 -15 11 -3 20 -3 20 -1 0 2 -9 8 -20 14 -11 6
-20 7 -20 2z"/>
<path d="M4145 21 c-3 -5 0 -13 6 -17 7 -4 9 -3 5 4 -3 5 0 13 6 15 9 4 10 6
1 6 -6 1 -14 -3 -18 -8z"/>
<path d="M1005 10 c-16 -7 -17 -9 -3 -9 9 -1 20 4 23 9 7 11 7 11 -20 0z"/>
<path d="M1238 13 c7 -3 16 -2 19 1 4 3 -2 6 -13 5 -11 0 -14 -3 -6 -6z"/>
<path d="M588 3 c7 -3 16 -2 19 1 4 3 -2 6 -13 5 -11 0 -14 -3 -6 -6z"/>
</g>
</svg>
